<svg width="75" height="45" viewBox="0 0 75 45" fill="none" xmlns="http://www.w3.org/2000/svg">
<path d="M9.61108 44H12.8901L12.8901 33.25L16.7654 44H20.6407L18.2559 32.9514L20.6407 33.25V34.4444C20.7609 34.9708 20.8971 35.1579 21.2369 35.3403C21.5588 35.5082 21.7555 35.5015 22.1311 35.3403C22.5357 35.2528 22.6744 35.1289 22.7273 34.7431C22.8545 34.0434 22.8363 33.6511 22.7273 32.9514C23.6596 32.9565 24.1817 32.8784 25.1121 32.6528L26.3045 34.1458C26.8558 34.3161 27.1105 34.2296 27.4969 33.8472C27.7169 33.5638 27.8329 33.392 27.795 32.6528C27.7075 32.161 27.5157 31.9017 26.9007 31.4583C27.859 30.6011 28.2282 29.9961 28.6893 28.7708H41.8055L44.4884 44H46.8732V39.2222L47.7675 35.6389L50.1523 44H52.2389L52.537 29.3681L61.778 14.4375L63.5666 15.0347H65.6533L67.74 14.1389H68.3362L72.2114 14.7361L74 12.0486V11.1528L68.3362 6.375L66.2495 4.88194C64.5998 4.33349 64.2508 3.90472 63.8647 3.09028V1H62.9704L61.1818 4.28472C60.863 4.55575 60.668 4.56422 60.2875 4.28472L57.9028 1.59722C57.6969 1.83994 57.6205 2.02261 57.6047 2.49306V6.07639H8.41869C5.74746 6.64235 4.65413 7.4347 3.64914 9.95833C3.64914 10.0149 3.43343 15.413 2.75485 20.1111C2.1042 24.6158 0.989267 28.4289 1.00008 28.4722C1.21614 29.3379 2.42397 29.1637 3.35105 28.4722C4.90613 22.8183 5.4788 18.9256 6.03392 10.8542C6.31506 9.34891 6.87395 8.93018 8.41869 8.76389C8.36608 9.76338 8.36644 10.4161 8.41869 11.75C9.60897 21.3327 9.5634 25.2161 8.1206 29.3681L9.61108 44Z" stroke="white" stroke-width="1"/>
</svg>
