<svg width="62" height="62"  stroke-width="1"  viewBox="0 0 62 62" fill="none" xmlns="http://www.w3.org/2000/svg">
<path d="M7.4014 34.978C8.83485 39.8754 10.4169 43.0917 12.8563 44.9981C15.3019 46.9095 18.5215 47.4371 23.0599 47.2042L23.0168 46.2539C18.5337 46.4839 15.5762 45.9431 13.3861 44.2315C11.1898 42.5149 9.67765 39.5535 8.25567 34.6952L7.4014 34.978Z" stroke-width="1" stroke="white"/>
<path d="M28.4065 48.1562C28.9006 48.1562 29.3012 47.7302 29.3012 47.2048C29.3012 46.6793 28.9006 46.2534 28.4065 46.2534C27.9124 46.2534 27.5118 46.6793 27.5118 47.2048C27.5118 47.7302 27.9124 48.1562 28.4065 48.1562Z"  stroke-width="1"  stroke="white"/>
<path  stroke-width=".5"   d="M48.018 3.01723C47.1992 1.8512 45.9645 1.23107 44.1102 1.06451C42.492 0.849881 41.2566 1.15695 40.2456 2.19491C39.3074 3.15815 38.6083 4.70963 37.9015 6.85704C37.0845 7.11439 36.4405 7.40783 35.8808 7.85077C35.4425 8.19763 35.0724 8.62303 34.7126 9.16078C34.2426 8.23664 33.8138 7.53231 33.3506 6.93071C32.7712 6.17812 32.1509 5.60338 31.3615 4.96471L31.0456 4.70915L30.7693 5.01224C28.8498 7.11847 27.5947 9.03894 26.7601 11.005C26.2159 12.2866 25.8548 13.5776 25.6019 14.937C25.5763 14.8259 25.548 14.7131 25.5157 14.5992C25.2532 13.6727 24.7334 12.6572 23.3547 11.191L23.3021 11.1352L23.2355 11.1004C22.7916 10.8686 22.3904 10.7047 21.9784 10.6381C21.5587 10.5703 21.1547 10.6075 20.7078 10.737C19.9647 10.9523 19.044 11.4459 17.6631 12.1863L17.3752 12.3406C16.4588 10.9036 15.5888 9.84053 14.4607 9.38814C13.2694 8.91039 11.9062 9.15286 10.1137 10.0267C9.09718 9.26229 8.1917 8.79875 7.18693 8.71376C6.11687 8.62325 5.00544 8.9683 3.61099 9.67033L3.47469 9.73895L3.40528 9.8813C2.7539 11.2171 2.37807 12.3055 2.30364 13.4146C2.23139 14.4912 2.44611 15.54 2.89141 16.8016C2.45785 19.1659 2.38825 20.8646 2.77618 22.2412C3.14201 23.5395 3.89686 24.4914 4.98933 25.426L3.563 27.7011H1.13818L1.11879 28.1552C0.898739 33.3103 0.949551 36.1659 1.56965 41.0839L1.58006 41.1665L1.61625 41.2404C3.22527 44.5261 4.55545 46.7559 6.02036 48.5029C7.48996 50.2555 9.07842 51.5023 11.1767 52.845L11.2338 52.8816L11.2985 52.8988C12.0456 53.098 12.7105 53.2898 13.3189 53.4653C15.2046 54.0094 16.5481 54.397 18.1175 54.3624V58.185L18.1236 58.2237C18.2299 58.9047 18.4123 59.4707 18.8381 59.9361C19.2507 60.3869 19.8462 60.6918 20.6622 60.9763L20.7301 61H40.5552L40.6222 60.977C41.3138 60.7398 41.8398 60.4618 42.2507 60.0192C42.6597 59.5787 42.9154 59.0171 43.1451 58.299L43.169 58.2245V54.2751C50.8592 53.0255 55.4747 49.7887 58.0368 45.1875C60.6246 40.54 61.0635 34.591 60.6143 28.1417L60.5836 27.7011H59.3082C60.5859 25.5194 61.1043 23.9715 60.9828 22.6915C60.8543 21.3389 60.0218 20.4075 59.0037 19.4592C59.5181 17.6812 59.9031 15.7139 60.1647 13.4892L60.216 13.0528L59.8109 12.9642C58.0029 12.5688 56.4009 12.4545 54.8636 12.6298C54.0574 10.8131 53.3429 9.46128 52.482 8.57066C51.6249 7.68397 50.6439 7.27327 49.3687 7.24364C49.1098 5.50045 48.7547 4.0662 48.018 3.01723ZM36.9071 14.1566C36.5801 12.9361 36.0403 11.6863 35.1908 10.1093C35.6068 9.41569 35.9807 8.95766 36.415 8.614C36.8982 8.23158 37.4884 7.96519 38.3683 7.70431L38.5948 7.63715L38.6712 7.40065C39.4036 5.13374 40.0638 3.70399 40.867 2.87935C41.6293 2.0967 42.5661 1.81688 44.0078 2.0097L44.0171 2.01094L44.0264 2.01176C45.7245 2.16274 46.6827 2.70584 47.3011 3.58648C47.9462 4.50509 48.2771 5.86189 48.5418 7.79049L48.5996 8.21128L48.9993 8.19722C50.2706 8.15251 51.1158 8.48455 51.8581 9.25257C52.558 9.97668 53.185 11.1055 53.9364 12.772C50.9574 13.3476 48.1779 15.0362 44.511 17.7484V11.0517H43.6163V18.0698C43.3424 17.9992 43.0757 17.9228 42.8096 17.8466C41.3459 17.4273 39.8986 17.0127 37.3476 17.5901C37.3217 16.3422 37.2056 15.271 36.9071 14.1566ZM48.365 21.9927C47.4846 20.6087 46.3886 19.5448 44.9045 18.6164C48.8665 15.6783 51.639 14.0418 54.6548 13.6146C56.0607 13.4155 57.5348 13.4776 59.2231 13.8112C58.9537 15.9305 58.5677 17.7933 58.063 19.4692C57.079 22.7364 55.6379 25.312 53.7013 27.7011H50.6613C49.9954 25.3206 49.3128 23.4826 48.365 21.9927ZM58.2474 27.7011H54.8684C56.5017 25.5664 57.7738 23.2508 58.6985 20.4462C59.5324 21.2597 60.0104 21.9215 60.0926 22.7871C60.1902 23.8144 59.7414 25.2584 58.2474 27.7011ZM47.6239 22.5257C48.4616 23.8427 49.0956 25.4897 49.7271 27.7011H45.8222C45.6274 27.4634 45.5052 27.2185 45.3946 26.9411C45.3555 26.8429 45.3142 26.7294 45.2695 26.6063C45.1742 26.3443 45.0631 26.0388 44.9235 25.7459C44.4749 24.8052 43.662 23.7764 41.6006 22.5306L41.5427 22.4956L41.4778 22.48C39.2662 21.9509 37.187 22.7303 35.2316 24.563L33.4253 21.1056C33.9561 20.4818 34.4055 20.0337 34.9047 19.6721C35.4634 19.2676 36.1053 18.9566 37.028 18.6451C39.6788 17.9428 40.9923 18.3173 42.5166 18.7518C42.9522 18.876 43.4051 19.0051 43.9113 19.1154C45.586 20.0647 46.7292 21.1192 47.6239 22.5257ZM44.5709 27.3124C44.6223 27.4414 44.6785 27.5711 44.744 27.7011H36.3338L35.6314 25.4604C37.4824 23.6467 39.3232 22.9649 41.2171 23.3933C43.1286 24.5586 43.7817 25.455 44.1255 26.1761C44.2471 26.4311 44.3256 26.6488 44.4093 26.8808C44.4582 27.0164 44.5089 27.1568 44.5709 27.3124ZM34.7055 25.515L35.3907 27.7011H31.387C30.7379 26.0809 30.1421 24.7989 29.3231 23.9718C28.4105 23.0501 27.2708 22.7336 25.6667 22.9478L25.6485 22.9503L25.6306 22.9543C24.1241 23.2903 22.9612 23.6844 22.0962 24.4665C21.2841 25.2009 20.7851 26.2286 20.4455 27.7011H16.4385L17.1963 24.0745C18.1234 22.446 19.0335 21.4702 20.3115 20.6006C21.4431 19.8306 22.8566 19.1465 24.8465 18.1834C25.1241 18.0491 25.413 17.9093 25.7138 17.763L32.5561 21.401L34.7055 25.515ZM28.707 24.6616C29.3254 25.2863 29.8259 26.2737 30.4125 27.7011H21.3691C21.6785 26.4715 22.0948 25.7166 22.6758 25.1913C23.3542 24.5779 24.3164 24.2206 25.7962 23.8894C27.2067 23.7044 28.0453 23.9934 28.707 24.6616ZM16.2827 24.0605L15.5219 27.7011H4.63828L6.19748 25.2141L5.86215 24.9436C4.6561 23.9708 3.95641 23.115 3.63322 21.9681C3.30345 20.7979 3.34457 19.253 3.7938 16.8529L3.81906 16.718L3.77269 16.5895C3.31891 15.3328 3.13455 14.3989 3.19606 13.4824C3.25552 12.5964 3.54778 11.6798 4.13049 10.4622C5.40507 9.83458 6.30889 9.59389 7.11598 9.66216C7.9462 9.73239 8.7451 10.1357 9.80058 10.9595L10.0164 11.1279L10.258 11.0053C12.1093 10.0654 13.253 9.92064 14.145 10.2783C15.0627 10.6464 15.8423 11.5899 16.8492 13.2161L17.0679 13.5693L17.4234 13.3797C17.6457 13.2611 17.8553 13.1488 18.0533 13.0428C19.4672 12.2857 20.2937 11.8431 20.943 11.655C21.2925 11.5537 21.5691 11.5343 21.8439 11.5787C22.1108 11.6218 22.3997 11.7288 22.7748 11.9201C24.0388 13.2758 24.4531 14.1466 24.6591 14.8737C24.7409 15.1626 24.7905 15.4279 24.8451 15.7199C24.8642 15.822 24.8839 15.9274 24.9058 16.0382C24.9643 16.3343 25.0354 16.6483 25.1495 16.9912C24.9221 17.1015 24.7008 17.2085 24.4855 17.3127L24.4836 17.3136C22.5015 18.2725 21.0191 18.9897 19.8292 19.7992C18.5451 20.673 17.5946 21.657 16.6805 23.1577L11.7096 18.3122L11.105 19.0135L16.2827 24.0605ZM32.7739 20.4531L26.2044 16.9602C26.4447 14.9321 26.8321 13.1475 27.5755 11.3965C28.3194 9.64436 29.4288 7.9045 31.1353 5.98183C31.7409 6.49111 32.2151 6.95773 32.6584 7.53342C33.178 8.20825 33.668 9.04998 34.2702 10.3151L34.2761 10.3275L34.2827 10.3395C35.1928 12.0027 35.7317 13.2415 36.0466 14.4173C36.3355 15.4956 36.4417 16.5418 36.4568 17.8431C35.6307 18.1413 34.9858 18.4624 34.4011 18.8858C33.8255 19.3026 33.3246 19.8069 32.7739 20.4531ZM42.2743 54.3402H19.0122V58.1058C19.1049 58.6768 19.2413 59.0124 19.4793 59.2726C19.7284 59.5448 20.1348 59.7854 20.8738 60.0486H40.4135C41.0031 59.8402 41.3571 59.6274 41.614 59.3508C41.8723 59.0726 42.0693 58.6904 42.2743 58.0662V54.3402ZM57.2669 44.7028C54.8419 49.0579 50.4065 52.2099 42.6897 53.3888H18.5491L18.5334 53.39C16.9119 53.5117 15.6735 53.1553 13.6453 52.5716C13.0384 52.397 12.3608 52.202 11.5811 51.9934C9.55455 50.6924 8.06322 49.5096 6.68814 47.8697C5.30608 46.2215 4.02501 44.0919 2.44602 40.8748C1.86252 36.2207 1.79904 33.4519 1.99366 28.6525H59.7514C60.1454 34.8685 59.6554 40.4132 57.2669 44.7028Z" stroke="white"/>
</svg>
