<svg width="77" height="47" viewBox="0 0 77 47" fill="none" xmlns="http://www.w3.org/2000/svg">
<path d="M10.6111 45H13.8901L13.8901 34.25L17.7654 45H21.6407L19.2559 33.9514L21.6407 34.25V35.4444C21.7609 35.9708 21.8971 36.1579 22.2369 36.3403C22.5588 36.5082 22.7555 36.5015 23.1311 36.3403C23.5357 36.2528 23.6744 36.1289 23.7273 35.7431C23.8545 35.0434 23.8363 34.6511 23.7273 33.9514C24.6596 33.9565 25.1817 33.8784 26.1121 33.6528L27.3045 35.1458C27.8558 35.3161 28.1105 35.2296 28.4969 34.8472C28.7169 34.5638 28.8329 34.392 28.795 33.6528C28.7075 33.161 28.5157 32.9017 27.9007 32.4583C28.859 31.6011 29.2282 30.9961 29.6893 29.7708H42.8055L45.4884 45H47.8732V40.2222L48.7675 36.6389L51.1523 45H53.2389L53.537 30.3681L62.778 15.4375L64.5666 16.0347H66.6533L68.74 15.1389H69.3362L73.2114 15.7361L75 13.0486V12.1528L69.3362 7.375L67.2495 5.88194C65.5998 5.33349 65.2508 4.90472 64.8647 4.09028V2H63.9704L62.1818 5.28472C61.863 5.55575 61.668 5.56422 61.2875 5.28472L58.9028 2.59722C58.6969 2.83994 58.6205 3.02261 58.6047 3.49306V7.07639H9.41869C6.74746 7.64235 5.65413 8.4347 4.64914 10.9583C4.64914 11.0149 4.43343 16.413 3.75485 21.1111C3.1042 25.6158 1.98927 29.4289 2.00008 29.4722C2.21614 30.3379 3.42397 30.1637 4.35105 29.4722C5.90613 23.8183 6.4788 19.9256 7.03392 11.8542C7.31506 10.3489 7.87395 9.93018 9.41869 9.76389C9.36608 10.7634 9.36644 11.4161 9.41869 12.75C10.609 22.3327 10.5634 26.2161 9.1206 30.3681L10.6111 45Z" stroke="white" stroke-width="3"/>
</svg>
