<svg width="45" height="69" viewBox="0 0 45 69" fill="none" xmlns="http://www.w3.org/2000/svg">
<path d="M1 68.5H0.5C0.5 68.7761 0.723858 69 1 69V68.5ZM18.5 68.5V69C18.7761 69 19 68.7761 19 68.5H18.5ZM18.5 29H19C19 28.9802 18.9988 28.9603 18.9965 28.9406L18.5 29ZM13.5 20.5H13C13 20.6164 13.0406 20.7291 13.1148 20.8188L13.5 20.5ZM14 7L14.4472 7.22361C14.4819 7.15418 14.5 7.07762 14.5 7H14ZM14 5H14.5C14.5 4.92238 14.4819 4.84582 14.4472 4.77639L14 5ZM13.5 4H13C13 4.07762 13.0181 4.15418 13.0528 4.22361L13.5 4ZM13.5 2H14C14 1.86739 13.9473 1.74021 13.8536 1.64645L13.5 2ZM12.5 1L12.8536 0.646447C12.7598 0.552678 12.6326 0.5 12.5 0.5V1ZM7 1V0.5C6.86739 0.5 6.74021 0.552678 6.64645 0.646447L7 1ZM6 2L5.64645 1.64645C5.55268 1.74021 5.5 1.86739 5.5 2H6ZM6 3.5L6.47434 3.65811C6.49134 3.60713 6.5 3.55374 6.5 3.5L6 3.5ZM5.5 5L5.02566 4.84189C5.00866 4.89287 5 4.94626 5 5H5.5ZM5.5 7H5C5 7.13261 5.05268 7.25979 5.14645 7.35355L5.5 7ZM6.5 20.5L6.87035 20.8359C6.95379 20.7439 7 20.6242 7 20.5H6.5ZM1 29.5L0.521666 29.3544C0.507301 29.4016 0.5 29.4507 0.5 29.5H1ZM9 36.5V36C8.86739 36 8.74021 36.0527 8.64645 36.1464L9 36.5ZM7.5 38L7.14645 37.6464C7.05268 37.7402 7 37.8674 7 38H7.5ZM7.5 50.5H7C7 50.6326 7.05268 50.7598 7.14645 50.8536L7.5 50.5ZM9 52L8.64645 52.3536C8.74021 52.4473 8.86739 52.5 9 52.5V52ZM27 30.5V30C26.7823 30 26.5897 30.1408 26.5236 30.3482L27 30.5ZM44 39.5L44.4985 39.4617L44.4984 39.4606L44 39.5ZM41.5 30.5L41.9326 30.2493C41.8432 30.095 41.6783 30 41.5 30V30.5ZM28.5 68L28.205 67.5963C28.0334 67.7217 27.9598 67.9419 28.0216 68.1452C28.0833 68.3486 28.2668 68.4907 28.4792 68.4996L28.5 68ZM40.5 68.5L40.4792 68.9996C40.7006 69.0088 40.9016 68.8712 40.9732 68.6616C41.0448 68.4519 40.9698 68.2201 40.789 68.092L40.5 68.5ZM0.5 48V68.5H1.5V48H0.5ZM1 69H18.5V68H1V69ZM19 68.5V52H18V68.5H19ZM19 52V36.5H18V52H19ZM19 36.5V29H18V36.5H19ZM18.9965 28.9406C18.6479 26.0268 16.9398 23.8726 13.8852 20.1812L13.1148 20.8188C16.2183 24.5692 17.6964 26.4924 18.0035 29.0594L18.9965 28.9406ZM14 20.5V8H13V20.5H14ZM13.9472 8.22361L14.4472 7.22361L13.5528 6.77639L13.0528 7.77639L13.9472 8.22361ZM14.5 7V5H13.5V7H14.5ZM14.4472 4.77639L13.9472 3.77639L13.0528 4.22361L13.5528 5.22361L14.4472 4.77639ZM14 4V2H13V4H14ZM13.8536 1.64645L12.8536 0.646447L12.1464 1.35355L13.1464 2.35355L13.8536 1.64645ZM12.5 0.5H7V1.5H12.5V0.5ZM6.64645 0.646447L5.64645 1.64645L6.35355 2.35355L7.35355 1.35355L6.64645 0.646447ZM5.5 2V3.5H6.5V2H5.5ZM5.52566 3.34189L5.02566 4.84189L5.97434 5.15811L6.47434 3.65811L5.52566 3.34189ZM5 5V7H6V5H5ZM5.14645 7.35355L6.14645 8.35355L6.85355 7.64645L5.85355 6.64645L5.14645 7.35355ZM6 8V20.5H7V8H6ZM6.12965 20.1641C3.11949 23.4829 1.70286 25.4736 0.521666 29.3544L1.47833 29.6456C2.60046 25.9588 3.9141 24.0953 6.87035 20.8359L6.12965 20.1641ZM0.5 29.5V43.5H1.5V29.5H0.5ZM14 4.5H5.5V5.5H14V4.5ZM6.5 8.5H13.5V7.5H6.5V8.5ZM18.5 36H9V37H18.5V36ZM8.64645 36.1464L7.14645 37.6464L7.85355 38.3536L9.35355 36.8536L8.64645 36.1464ZM7 38V50.5H8V38H7ZM7.14645 50.8536L8.64645 52.3536L9.35355 51.6464L7.85355 50.1464L7.14645 50.8536ZM9 52.5H18.5V51.5H9V52.5ZM26.5236 30.3482C25.4289 33.785 24.848 35.7573 24.5022 39.4534L25.4978 39.5466C25.8337 35.9563 26.3896 34.0636 27.4764 30.6518L26.5236 30.3482ZM24.5085 39.4082C23.2985 45.8885 28.383 51.665 34.4726 51.9992L34.5274 51.0008C28.9991 50.6973 24.3998 45.4385 25.4915 39.5918L24.5085 39.4082ZM34.4726 51.9992C37.5666 52.1691 40.2166 50.6989 42.0123 48.3617C43.8041 46.0297 44.7573 42.8258 44.4985 39.4617L43.5015 39.5383C43.7427 42.6742 42.8503 45.6298 41.2194 47.7524C39.5924 49.87 37.2423 51.1498 34.5274 51.0008L34.4726 51.9992ZM44.4984 39.4606C44.3158 37.1524 44.0631 35.5126 43.6578 34.1134C43.2508 32.708 42.6957 31.5659 41.9326 30.2493L41.0674 30.7507C41.8074 32.0275 42.3209 33.092 42.6973 34.3916C43.0755 35.6973 43.3213 37.2608 43.5016 39.5394L44.4984 39.4606ZM41.5 30H27V31H41.5V30ZM44 39H34V40H44V39ZM25 40H29.5V39H25V40ZM34 51.5V65H35V51.5H34ZM34.3535 64.5219C31.8762 65.2812 30.5032 65.9169 28.205 67.5963L28.795 68.4037C30.9968 66.7948 32.268 66.207 34.6465 65.4781L34.3535 64.5219ZM28.4792 68.4996L40.4792 68.9996L40.5208 68.0004L28.5208 67.5004L28.4792 68.4996ZM40.789 68.092C38.3047 66.3319 36.9541 65.5243 34.6998 64.5417L34.3002 65.4583C36.4734 66.4057 37.7635 67.174 40.211 68.908L40.789 68.092Z" fill="white" fill-opacity="0.65"/>
</svg>
